<svg display="none" xmlns="http://www.w3.org/2000/svg">
 <symbol id="svg-content" viewBox="0 0 24 24" xmlns="http://www.w3.org/2000/svg">
 <path d="M4 6.75A4.756 4.756 0 0 1 8.75 2h9.133a2.745 2.745 0 0 0-2.633-2H3.75A2.752 2.752 0 0 0 1 2.75v15.5A2.752 2.752 0 0 0 3.75 21H4z"/>
 <path d="M20.25 4H8.75A2.752 2.752 0 0 0 6 6.75v14.5A2.752 2.752 0 0 0 8.75 24h11.5A2.752 2.752 0 0 0 23 21.25V6.75A2.752 2.752 0 0 0 20.25 4zm-2 17h-7.5a.75.75 0 0 1 0-1.5h7.5a.75.75 0 0 1 0 1.5zm0-4h-7.5a.75.75 0 0 1 0-1.5h7.5a.75.75 0 0 1 0 1.5zm0-3.5h-7.5a.75.75 0 0 1 0-1.5h7.5a.75.75 0 0 1 0 1.5zm0-4h-7.5a.75.75 0 0 1 0-1.5h7.5a.75.75 0 0 1 0 1.5z"/>
 </symbol>
</svg>