<!-- Embeded svg sprite reference -->
<svg display="none" xmlns="http://www.w3.org/2000/svg">
 <symbol id="svg-content" viewBox="0 0 512 512" xmlns="http://www.w3.org/2000/svg">
 <path d="M309.333 341.333c29.419 0 53.333-23.936 53.333-53.333V96c0-29.397-23.915-53.333-53.333-53.333h-256C23.915 42.667 0 66.603 0 96v192c0 29.397 23.915 53.333 53.333 53.333h32v53.333c0 4.032 2.283 7.723 5.888 9.536A10.7 10.7 0 0 0 96 405.333c2.261 0 4.523-.725 6.4-2.133l82.496-61.867z"/>
 <path d="M458.667 106.667h-64c-5.888 0-10.667 4.779-10.667 10.667V288c0 41.173-33.493 74.667-74.667 74.667h-113.77c-2.304 0-4.565.747-6.4 2.133l-17.685 13.269a10.622 10.622 0 0 0-4.267 8.64 10.673 10.673 0 0 0 4.459 8.555c9.173 6.592 19.904 10.069 30.997 10.069h124.437L409.6 467.2a10.635 10.635 0 0 0 6.4 2.133 10.84 10.84 0 0 0 4.779-1.131 10.684 10.684 0 0 0 5.888-9.536v-53.333h32C488.085 405.333 512 381.397 512 352V160c0-29.397-23.915-53.333-53.333-53.333z"/>
 </symbol>
</svg>