<svg display="none" xmlns="http://www.w3.org/2000/svg">
 <symbol viewBox="0 0 24 24" id="svg-content" xmlns="http://www.w3.org/2000/svg">
 <path d="M12 3.75a1 1 0 0 1-1-1V1a1 1 0 0 1 2 0v1.75a1 1 0 0 1-1 1zM12 24a1 1 0 0 1-1-1v-5.5a1 1 0 0 1 2 0V23a1 1 0 0 1-1 1z"/>
 <path d="M16.499 24a1 1 0 0 1-.521-.146l-4.5-2.75a1 1 0 0 1 1.043-1.707l4.5 2.75A1 1 0 0 1 16.499 24z"/>
 <path d="M7.501 24a1 1 0 0 1-.522-1.854l4.5-2.75a1 1 0 0 1 1.043 1.707l-4.5 2.75a.992.992 0 0 1-.521.147zM22.25 2H1.75C.785 2 0 2.785 0 3.75v12.5C0 17.215.785 18 1.75 18h20.5c.965 0 1.75-.785 1.75-1.75V3.75C24 2.785 23.215 2 22.25 2zM13 5.75c0-.41.34-.75.75-.75h2.5c.41 0 .75.34.75.75v6.75h-4zm-6 4c0-.41.34-.75.75-.75h2.5c.41 0 .75.34.75.75v2.75H7zM17.25 15H6.75a.75.75 0 0 1 0-1.5h10.5a.75.75 0 0 1 0 1.5z"/>
 </symbol>
</svg>